# xmcd CD database file
#
# Track frame offsets:
#	150
#	17142
#	26238
#	34955
#	45107
#	53425
#	58337
#	69042
#	77264
#	93657
#	110317
#	131059
#	147891
#	170714
#
# Disc length: 2686 seconds
#
# Revision: 0
# Processed by: cddbd v1.5.1PL2 Copyright (c) Steve Scherf et al.
# Submitted via: CDex 1.51
#
DISCID=b40a7c0e
DTITLE=SADISTICS - SADISTICS
DYEAR=1977
DGENRE=Rock
TTITLE0=眠れる海の男たち〜eo Vandes
TTITLE1=Rio de Janeyo
TTITLE2=Soft Sea Sailing
TTITLE3=Koola
TTITLE4=Cobra Twist
TTITLE5=キリンのいる風景
TTITLE6=Whip it Up!
TTITLE7=Kannst du Jodeln? （ヨーデルが出来るかい）海のお兄さん
TTITLE8=冷怪気〜神族vs海賊
TTITLE9=香港戀歌
TTITLE10=The Crazy Kimono Kids
TTITLE11=The Tokyo Taste
TTITLE12=今頃君は・・・
TTITLE13=Far away （熱い風）
EXTD=YEAR: 1977
EXTT0=
EXTT1=
EXTT2=
EXTT3=
EXTT4=
EXTT5=
EXTT6=
EXTT7=
EXTT8=
EXTT9=
EXTT10=
EXTT11=
EXTT12=
EXTT13=
PLAYORDER=
